<svg width="103" height="38" viewBox="0 0 103 38" fill="none" xmlns="http://www.w3.org/2000/svg">
<path d="M102.548 14.4126C102.326 13.5623 100.921 9.8136 100.859 9.6534L100.753 9.36997L100.468 9.28124L99.1144 8.85978C98.9172 8.32249 98.7768 7.95279 98.7768 7.95279L98.6708 7.66936L98.3824 7.58063C98.2616 7.54366 86.6113 3.92063 82.8108 2.46649C82.7578 2.2789 82.6475 2.11258 82.4953 1.99082C82.1503 1.70985 81.5883 1.62112 80.6887 1.7197C80.7398 1.49157 80.7655 1.25847 80.7651 1.02467C80.7648 0.8667 80.7249 0.711317 80.6492 0.572697C80.5734 0.434076 80.4641 0.316628 80.3313 0.231059C78.7293 -0.838598 70.9805 2.15102 70.9041 2.18059C67.4018 3.5953 63.4239 5.38463 60.5526 8.86225C60.33 9.12653 60.1234 9.40389 59.9339 9.69283C59.7447 9.46896 59.5431 9.25585 59.3301 9.05449C58.7859 8.54655 58.1951 8.09104 57.5654 7.69401C57.4619 7.58063 57.3559 7.46972 57.245 7.36374C55.2979 5.51772 52.5918 4.28787 50.1813 4.1597C47.4111 3.99704 44.6802 6.82152 43.9063 7.69401C42.8584 8.87188 42.007 10.2109 41.385 11.6596C41.293 11.5068 41.1993 11.3589 41.104 11.216C40.1609 9.82968 38.9521 8.64429 37.5476 7.72851C36.3825 6.51616 34.9575 5.58411 33.3798 5.00261L33.1334 4.92621L32.7563 4.67975L32.9461 4.86952C29.079 3.92063 24.6624 7.56831 22.4565 10.4495C22.4048 10.3262 22.3456 10.203 22.284 10.0847C22.1913 9.90327 22.0884 9.72718 21.9759 9.55728C21.8823 9.41679 21.7738 9.27385 21.6481 9.11611C20.8693 8.15243 19.7405 7.36128 18.2888 6.76237C17.3408 6.19394 16.3179 5.7609 15.2499 5.47582C14.7274 5.32795 14.1581 5.19485 13.5616 5.08148C13.1845 5.01001 12.7951 4.94346 12.4057 4.88677C9.01435 4.39385 1.04122 5.64096 0.701102 5.69518C0.57288 5.71443 0.453377 5.77169 0.358035 5.85956C0.262694 5.94743 0.195897 6.06188 0.166275 6.18811C-0.223139 7.79013 0.1367 12.7613 0.575407 18.149L0.664134 19.2507C0.664134 19.3937 1.82498 33.6837 2.43129 34.6252C2.59281 34.8688 2.83287 35.0497 3.11153 35.1378C3.26187 36.0522 3.35799 36.2494 3.43686 36.3874C3.75973 36.8803 4.33646 37.0307 4.93783 37.0307C5.32233 37.0238 5.70528 36.9801 6.08142 36.9001H6.12579L6.45359 36.8261C7.24639 36.6293 8.02869 36.3924 8.79747 36.1163C9.00696 36.0424 9.17949 35.9832 9.2904 35.9487C10.0298 35.7294 10.7692 35.5174 11.4889 35.3128C13.4227 34.8018 15.3267 34.1839 17.192 33.4619C19.706 32.4317 21.3499 31.3349 22.3678 30.0114C22.7371 29.5306 23.0144 28.9858 23.1861 28.4044C23.3241 28.5301 23.4744 28.6509 23.6346 28.7717C23.9427 29.0041 24.2682 29.2126 24.6082 29.3952C24.9279 29.8023 25.301 30.1646 25.7173 30.4723C29.0593 32.9961 33.7594 32.3035 36.6751 30.317C38.8144 28.8579 40.547 26.5264 41.5551 23.7512C41.6192 23.5713 41.6832 23.3889 41.7449 23.2065C42.3077 24.4449 42.9956 25.6226 43.7979 26.7211C44.53 27.7585 45.4753 28.6274 46.5706 29.2695C48.0741 30.9405 49.9497 31.8451 51.9929 31.8944C53.7658 31.9016 55.501 31.3827 56.9788 30.4033C57.0682 30.5125 57.1811 30.6001 57.3092 30.6594C57.4373 30.7188 57.5771 30.7483 57.7182 30.7458C57.9869 30.7335 58.2629 30.7187 58.5439 30.6965C58.5439 30.7508 58.5439 30.8025 58.5439 30.8543C58.5743 31.1496 58.6604 31.4365 58.7977 31.6997C59.1206 32.3281 59.5199 32.439 59.7959 32.439C67.2219 32.131 74.8697 28.4956 79.9764 25.4888C80.1416 25.3926 80.3116 25.2891 80.4891 25.1807C79.6807 28.8283 79.4441 29.5135 79.3923 29.6392L79.2321 29.8857L79.3381 30.1814C79.9099 31.7785 80.462 31.8549 80.8169 31.7711H80.8613L81.3271 31.6627L81.4084 31.8919C81.9802 33.4915 82.5323 33.5654 82.9143 33.4791C86.8134 32.5869 91.6022 31.3497 92.2799 30.5216C92.8936 29.7526 92.837 28.9121 92.7926 28.2368C92.77 27.9909 92.77 27.7434 92.7926 27.4974C92.8246 27.251 92.8789 26.2651 92.9774 24.3944C93.1303 21.5527 93.4285 15.9629 93.6602 14.3066C94.365 14.4447 95.696 14.7306 96.8174 14.9746C100.514 15.7707 100.923 15.8495 101.143 15.7953H101.222C101.515 15.8076 102.062 15.8323 102.392 15.4207C102.5 15.279 102.571 15.1125 102.598 14.9364C102.625 14.7603 102.608 14.5803 102.548 14.4126V14.4126ZM80.8588 12.0983C81.1373 12.3152 81.6376 12.3867 83.0918 12.5346C82.9118 13.5081 82.658 14.8218 82.3524 16.3227C82.1055 16.164 81.8505 16.0184 81.5883 15.8865C81.2626 15.4068 80.8435 14.9977 80.356 14.6837C79.2062 13.9592 77.9303 13.4575 76.595 13.205C76.712 13.0892 76.8161 12.9611 76.9055 12.8229C77.2111 12.3744 77.5192 11.9307 77.8248 11.4846L78.648 10.2917C78.6821 10.3316 78.7201 10.3679 78.7614 10.4002C79.0078 10.5998 79.4515 10.6738 80.6246 10.7995C80.5039 11.566 80.5704 11.8839 80.8465 12.0983H80.8588ZM62.6204 16.3351C63.1899 16.8393 63.827 17.2615 64.5133 17.5896C67.1455 18.8909 70.0538 19.6796 72.8684 20.4362C72.3738 20.6998 71.8503 20.9049 71.3083 21.0475C67.9638 22.0087 64.9594 22.2231 62.6032 21.6686C62.8442 19.8993 62.85 18.1059 62.6204 16.3351V16.3351ZM52.922 16.3104C52.7762 16.9723 52.4323 17.574 51.9362 18.0357C51.5 18.4043 50.9702 18.6449 50.4056 18.7307C49.8506 18.826 49.2813 18.7957 48.7395 18.642C48.5928 18.3058 48.5141 17.944 48.5078 17.5772C48.4758 16.0738 48.5325 14.5038 49.1708 13.1852C49.58 12.3374 50.2947 11.598 50.9922 11.3023C51.241 11.1928 51.5119 11.143 51.7834 11.1568C51.8376 11.248 51.8893 11.3417 51.9436 11.4353C52.6361 12.6701 53.3583 14.5235 52.922 16.3203V16.3104ZM29.0002 15.645C29.5744 13.9197 30.8289 12.3916 32.1253 11.8149C32.3429 11.7154 32.5712 11.641 32.8056 11.5931C32.8302 11.6522 32.8499 11.7114 32.8697 11.7705C33.4661 13.5229 33.577 15.0682 33.1999 16.3646C33.0553 16.8733 32.8091 17.3475 32.4761 17.7583C32.1432 18.1692 31.7304 18.5084 31.2627 18.7553C30.5629 19.1271 29.7482 19.2195 28.9829 19.0141C28.5689 18.1047 28.5738 16.9192 29.0002 15.645V15.645ZM20.1743 20.7788C19.4349 19.9975 18.9419 19.5095 18.6289 19.2039C18.8162 19.0807 19.0159 18.9574 19.2131 18.8293C19.4595 18.6765 19.706 18.5212 19.9327 18.3684C19.9554 19.1766 20.0361 19.9822 20.1743 20.7788V20.7788ZM9.10308 25.1289C11.8142 25.3187 13.1771 25.5208 13.8574 25.6662C12.4941 26.412 11.0781 27.057 9.62066 27.596L9.26821 27.7266C9.08091 26.865 8.94756 25.9924 8.86894 25.1141L9.10308 25.1289ZM8.61015 13.1039C8.59043 13.0127 8.57071 12.9092 8.54607 12.7884C8.39326 11.98 8.21581 10.8882 8.09257 10.1168L8.05068 9.85057C8.05068 9.82593 8.05067 9.80128 8.03835 9.77663C10.1752 10.0379 11.6737 10.2696 12.524 10.4421C11.2657 11.3994 9.95939 12.292 8.61015 13.1162V13.1039Z" fill="white"/>
<path d="M33.1825 5.58083C29.2957 4.26225 24.5932 8.48172 22.6363 11.2618C19.4002 15.851 20.4329 21.0243 22.269 25.8599C22.4003 26.2411 22.5653 26.6097 22.762 26.9616C23.0855 27.4718 23.5038 27.9152 23.9943 28.2679C26.9247 30.4861 31.2896 30.0991 34.2324 28.0954C36.4161 26.6166 37.9787 24.3121 38.8783 21.8278C40.219 18.1308 40.8352 13.31 38.5036 9.85699C37.2713 8.04055 35.2873 6.30051 33.1775 5.58083H33.1825ZM32.6969 10.0837C33.027 10.5321 33.281 11.0317 33.4487 11.5625C33.9909 13.1572 34.2571 14.9071 33.7863 16.5263C33.0962 18.8973 30.5576 20.4698 28.1743 19.3656C23.9844 17.4111 26.4762 11.0129 29.7862 9.54152C30.3522 9.24655 31.0036 9.15934 31.6273 9.29505C32.0567 9.43207 32.4314 9.70226 32.6969 10.0665" fill="#FEDD00"/>
<path d="M28.179 19.3755C28.3004 19.4312 28.4247 19.4806 28.5512 19.5234C27.0724 16.8468 29.1994 12.4425 31.8735 11.2521C32.2885 11.0529 32.7417 10.9461 33.2019 10.9391C33.0723 10.6354 32.9068 10.3482 32.709 10.0838C32.4434 9.71961 32.0688 9.44941 31.6394 9.3124C31.0157 9.17669 30.3643 9.2639 29.7983 9.55886C26.4809 11.0229 23.994 17.4211 28.179 19.3755Z" fill="#7AC145"/>
<path d="M40.5913 11.5565C39.681 10.222 38.5128 9.08311 37.1556 8.20703C37.6551 8.71591 38.1079 9.26856 38.5087 9.85834C40.8402 13.3088 40.2339 18.1297 38.8833 21.8291C37.9837 24.3135 36.4187 26.6056 34.2374 28.0967C31.6151 29.8762 27.8663 30.3691 25.0049 28.8903C25.3077 29.3008 25.6708 29.6631 26.0819 29.9649C29.0124 32.1831 33.3773 31.7962 36.3201 29.7899C38.5037 28.3111 40.0663 26.0092 40.9684 23.5248C42.3092 19.8303 42.9229 15.0119 40.5913 11.5565Z" fill="#7AC145"/>
<path d="M59.5693 12.8287C59.0764 10.889 58.2015 9.10217 56.8262 7.79837C55.1157 6.1791 52.5451 4.89009 50.1519 4.757C48.0003 4.6387 45.6737 6.6252 44.3699 8.09906C41.9175 10.8693 40.599 14.4332 40.9736 18.145C41.2767 21.1025 42.5362 23.9319 44.291 26.3448C49.5013 33.5046 58.6845 27.5057 59.838 20.3533C60.2484 17.8521 60.1571 15.2943 59.5693 12.8287V12.8287ZM48.6929 9.02823C49.0127 8.88293 49.3621 8.81461 49.713 8.82873C50.064 8.84286 50.4068 8.93904 50.7139 9.10957C51.5173 9.54581 52.067 10.3419 52.5081 11.133C53.3979 12.7523 53.9721 14.6575 53.5334 16.4542C53.3617 17.2359 52.9549 17.9463 52.3676 18.49C51.8457 18.9344 51.2111 19.2261 50.534 19.3329C48.2862 19.7174 45.8832 18.3027 45.8339 15.8824C45.7994 14.3198 45.8659 12.6439 46.5585 11.1996C46.9849 10.3148 47.7686 9.41025 48.6929 9.01837" fill="#FEDD00"/>
<path d="M47.9039 17.5839C47.8694 16.0213 47.9359 14.3429 48.6285 12.9011C49.0549 12.0163 49.8386 11.1117 50.7629 10.7199C51.2041 10.5246 51.6955 10.4728 52.1677 10.572C51.807 9.96258 51.2984 9.45397 50.6889 9.0932C50.3819 8.92267 50.0391 8.82649 49.6881 8.81237C49.3371 8.79824 48.9877 8.86657 48.6679 9.01187C47.7437 9.40374 46.9599 10.3083 46.5335 11.1931C45.841 12.6275 45.7744 14.3035 45.8089 15.8759C45.8434 17.4902 46.923 18.6511 48.3032 19.1366C48.0473 18.6586 47.9103 18.126 47.9039 17.5839V17.5839Z" fill="#7AC145"/>
<path d="M61.6517 14.5313C61.1587 12.5891 60.2838 10.8047 58.9085 9.50092C58.3772 9.00041 57.7995 8.55147 57.1833 8.16016C58.3564 9.42452 59.1279 11.061 59.5789 12.8307C60.1666 15.2962 60.2579 17.854 59.8476 20.3552C58.8617 26.3985 52.1628 31.6187 46.9648 28.7695C52.2466 34.7685 60.8186 28.9494 61.9326 22.0558C62.3377 19.5537 62.2422 16.9962 61.6517 14.5313V14.5313Z" fill="#7AC145"/>
<path d="M81.2038 16.4554C80.9169 15.9455 80.51 15.5132 80.0183 15.1959C77.7583 13.6999 74.9609 13.5865 72.3779 13.1256C71.0791 12.894 69.7753 12.6007 68.4961 12.2803C67.4708 12.0338 66.1079 11.9697 65.8713 10.6708C65.8479 10.5888 65.8558 10.501 65.8935 10.4244C65.9236 10.3869 65.9609 10.3557 66.0032 10.3329C66.0455 10.31 66.092 10.2959 66.1399 10.2913C66.8485 10.1459 67.5759 10.1159 68.294 10.2026C70.0154 10.3416 71.7172 10.6621 73.3712 11.1588C73.5094 11.2147 73.6594 11.235 73.8074 11.218C74.0332 11.1418 74.2205 10.981 74.3299 10.7694C75.6313 8.86426 76.9671 6.97881 78.2019 5.02681C78.8846 3.94483 80.1736 2.37978 80.1736 1.02669C80.1588 -0.498928 71.885 2.45618 71.1604 2.75194C67.355 4.28988 63.7246 6.02992 61.0554 9.25368C60.4121 10.0325 59.8107 10.942 59.823 11.95C59.8501 13.515 61.3191 14.6414 62.7215 15.3364C66.2065 17.0617 70.1893 17.8627 73.9085 18.9521C74.1722 19.0285 74.4827 19.1591 74.5197 19.4327C74.5271 19.5712 74.4881 19.7082 74.4088 19.8221C73.8198 20.8375 72.6244 21.3132 71.4981 21.6385C68.6366 22.4617 65.2724 22.967 62.3394 22.2325C61.4645 22.0131 61.5508 21.954 61.048 22.4987C60.7645 22.8068 60.555 23.3071 60.348 23.6645C59.6554 24.7982 58.9555 25.9221 58.2678 27.0558C57.9943 27.5044 57.0676 28.5568 57.0897 29.1163C57.0897 29.3627 57.3904 30.1292 57.7084 30.1169C64.5256 29.8335 71.8111 26.6541 77.603 23.2504C78.8353 22.5283 80.0676 21.7223 80.8391 20.5196C81.6968 19.1837 81.8915 17.6704 81.2236 16.4554" fill="#F58434"/>
<path d="M78.1895 5.03024C76.9572 6.98224 75.6188 8.86769 74.3175 10.7729C74.208 10.9844 74.0207 11.1453 73.795 11.2214C73.6469 11.2385 73.497 11.2181 73.3588 11.1623C71.7048 10.6656 70.003 10.345 68.2816 10.206C67.5635 10.1193 66.8361 10.1493 66.1275 10.2947C66.0796 10.2993 66.0331 10.3134 65.9908 10.3363C65.9485 10.3592 65.9111 10.3903 65.881 10.4278C65.8434 10.5044 65.8355 10.5922 65.8589 10.6743C66.056 11.7563 67.0345 11.9731 67.9489 12.1531C67.9523 12.141 67.9573 12.1294 67.9637 12.1186C68.0254 12.0435 68.1136 11.995 68.2101 11.983C68.9188 11.8384 69.6462 11.8093 70.3642 11.8967C72.0856 12.0358 73.7874 12.3563 75.4414 12.853C75.5796 12.9089 75.7296 12.9292 75.8776 12.9122C76.104 12.8359 76.2916 12.674 76.4001 12.4611C77.7015 10.5584 79.0373 8.67299 80.2721 6.72099C80.9548 5.63901 82.2438 4.07149 82.2438 2.72087C82.2438 2.17618 81.1742 2.20576 79.7792 2.4744C79.3355 3.41343 78.6356 4.32535 78.1895 5.03024Z" fill="#DA291C"/>
<path d="M64.7845 17.0379C67.7125 18.4847 70.988 19.2832 74.1649 20.1459C74.248 20.0443 74.323 19.9363 74.3892 19.823C74.4685 19.7091 74.5075 19.5721 74.5001 19.4336C74.4632 19.16 74.1526 19.0294 73.8889 18.953C70.1697 17.8636 66.1918 17.0601 62.7019 15.3349L62.4209 15.1895C62.9878 15.9806 63.8948 16.5968 64.7845 17.0379Z" fill="#DA291C"/>
<path d="M83.2891 18.1566C83.0018 17.6462 82.5939 17.2138 82.1011 16.8972C81.794 16.696 81.4737 16.5157 81.1424 16.3574C81.1621 16.3919 81.1868 16.4215 81.204 16.456C81.8719 17.6711 81.6772 19.1844 80.8195 20.5202C80.053 21.723 78.8133 22.5289 77.5834 23.251C72.2943 26.359 65.7532 29.2771 59.4806 29.9771C59.3004 30.2241 59.1874 30.5137 59.1528 30.8175C59.1652 31.064 59.4535 31.8305 59.7715 31.8181C66.5887 31.5347 73.8742 28.3553 79.6661 24.9516C80.8984 24.2295 82.1307 23.4211 82.9046 22.2208C83.7599 20.885 83.9546 19.3717 83.2891 18.1566Z" fill="#DA291C"/>
<path d="M99.8683 12.869C99.6539 12.0409 98.1998 8.17139 98.1998 8.17139C98.1998 8.17139 81.7113 3.04986 81.3761 2.48299C81.0409 1.91612 78.7611 9.60335 79.1456 9.91143C79.5301 10.2195 83.8999 10.2935 83.9763 10.8061C84.0527 11.3187 80.4124 29.2367 79.9195 29.9564C79.9195 29.9564 80.3754 31.2257 80.6934 31.1542C81.0113 31.0827 89.0387 29.2564 89.7214 28.4037C90.4041 27.5509 89.9876 26.5379 90.0935 25.6926C90.1995 24.8472 90.7368 11.8905 91.1238 11.8905C91.5107 11.8905 98.7321 13.5419 98.9219 13.4728C99.1117 13.4038 100.083 13.6971 99.8683 12.869" fill="#F58434"/>
<path d="M83.9768 10.8065C83.9349 10.5255 82.6163 10.3777 81.3618 10.252C81.1991 10.9913 81.1301 11.536 81.2287 11.6124C81.4283 11.7702 82.6409 11.8589 83.8043 11.9895C83.8871 11.5993 83.9447 11.2041 83.9768 10.8065V10.8065Z" fill="#DA291C"/>
<path d="M101.951 14.5677C101.737 13.7396 100.283 9.87007 100.283 9.87007L98.6413 9.35742C99.0874 10.5651 99.7306 12.3372 99.8736 12.8671C100.088 13.6952 99.1194 13.4019 98.9272 13.4709C98.7349 13.5399 91.5061 11.8837 91.1241 11.8837C90.7421 11.8837 90.1998 24.86 90.0939 25.6857C89.9879 26.5114 90.4019 27.5366 89.7217 28.3968C89.2288 29.0228 84.7456 30.1763 82.2883 30.7703C82.2219 31.0722 82.1262 31.3669 82.0024 31.6501C82.0024 31.6501 82.4584 32.9194 82.7763 32.8455C83.0943 32.7716 91.1216 30.9502 91.8043 30.0974C92.487 29.2446 92.0705 28.2292 92.1765 27.3863C92.2825 26.5434 92.8222 13.5843 93.2067 13.5843C93.5912 13.5843 100.815 15.2331 101.005 15.1641C101.195 15.0951 102.176 15.3958 101.951 14.5677Z" fill="#DA291C"/>
<path d="M16.4651 24.5178C16.4533 24.4801 16.4393 24.4431 16.4232 24.4069L16.3986 24.3576C16.3544 24.2777 16.2988 24.2046 16.2334 24.1408L16.1891 24.0964C16.1116 24.0281 16.0292 23.9655 15.9426 23.9091L15.9032 23.8795C15.8046 23.8154 15.6912 23.7513 15.5729 23.6897L15.4842 23.6454C15.361 23.5862 15.2377 23.5271 15.0972 23.4704L15.0258 23.4433L14.6314 23.2954L14.5353 23.2633C14.385 23.2116 14.2297 23.1598 14.0719 23.113L13.9586 23.0785L13.4656 22.9355C13.1354 22.8444 12.8027 22.7581 12.4798 22.6891L12.4305 22.6768L12.0682 22.5856H12.0485L11.5555 22.4599L11.5112 22.4475C11.282 22.3884 11.033 22.3366 10.7718 22.2873L10.6683 22.2676C10.4218 22.2233 10.1753 22.1838 9.91409 22.1493L9.77361 22.1321C9.52714 22.1 9.26835 22.0729 9.01942 22.0507H8.96767H8.89127C8.6448 22.0286 8.39833 22.0138 8.16912 22.0039H8.073H7.93745H7.72302C7.58253 22.0039 7.44698 22.0039 7.31882 22.0039C7.19066 22.0039 7.10686 22.0039 7.01074 22.0162H6.90969H6.81357H6.71745L6.62379 22.0286C6.5671 22.0286 6.51781 22.0458 6.47345 22.0557L6.40444 22.0704C6.35444 22.0841 6.30578 22.1023 6.25902 22.1247V22.1247C6.23271 22.1443 6.21225 22.1707 6.19987 22.2011C6.17844 22.2516 6.16354 22.3046 6.15551 22.3588C6.13965 22.4608 6.13141 22.5637 6.13086 22.6669C6.13086 22.7408 6.13086 22.8271 6.13086 22.9134V22.9996C6.13086 23.1327 6.14811 23.2806 6.16536 23.4359C6.16536 23.4876 6.16537 23.5443 6.18262 23.601C6.19494 23.7094 6.20726 23.8204 6.22205 23.9387L6.25163 24.1482C6.26888 24.264 6.28613 24.3798 6.30338 24.5006C6.31571 24.5745 6.32557 24.646 6.33789 24.7199C6.36993 24.9122 6.40197 25.1044 6.43648 25.3041C6.4488 25.3706 6.46359 25.4396 6.47591 25.5062C6.48824 25.5727 6.49809 25.6245 6.50795 25.6836L6.53753 25.8364C6.62133 26.2776 6.71498 26.7212 6.8111 27.155C6.80992 27.1747 6.80992 27.1945 6.8111 27.2142V27.2142L6.84807 27.3818C6.87272 27.4951 6.89736 27.6011 6.92448 27.7096C6.95159 27.818 6.96144 27.8821 6.98116 27.956C6.98116 27.956 6.98116 27.956 6.98116 27.9684V28.0004C6.98116 28.0497 7.00334 28.0965 7.01567 28.1458C7.02799 28.1951 7.01567 28.1778 7.02799 28.1951C7.04031 28.2123 7.02799 28.2296 7.02799 28.2444C7.07482 28.4317 7.11918 28.6042 7.16355 28.7743C7.16355 28.7965 7.17587 28.8236 7.18326 28.8482C7.23749 29.0503 7.28924 29.2401 7.33853 29.4102L7.37304 29.5186L7.44452 29.7478C7.45684 29.7848 7.4667 29.8168 7.47902 29.8489C7.49381 29.8957 7.5086 29.9327 7.52338 29.9721C7.53817 30.0115 7.53571 30.0066 7.54064 30.0214L7.58254 30.1249C7.59979 30.1668 7.61704 30.2062 7.63183 30.2358L7.64416 30.2555L7.67373 30.3048C7.71594 30.3639 7.76856 30.4149 7.829 30.4552C7.87284 30.4814 7.92012 30.5013 7.96948 30.5143C7.98627 30.5228 8.00356 30.5302 8.02125 30.5365C8.10587 30.5578 8.19278 30.5685 8.28003 30.5686V30.5686H8.34657C8.42343 30.5669 8.50005 30.5595 8.57579 30.5464H8.61276L8.75078 30.5143H8.79761L8.90112 30.4897C9.06379 30.4429 9.24124 30.3837 9.42856 30.3122C9.48524 30.2925 9.5444 30.2679 9.60109 30.2432L9.88452 30.1274C9.92642 30.1077 9.96585 30.0929 10.0127 30.0756L10.1532 30.014L10.2789 29.9598L10.3725 29.9179L10.6929 29.7749H10.7151L10.9616 29.6665H10.9862C11.1834 29.5753 11.388 29.4816 11.5999 29.388C11.9548 29.2278 12.3393 29.0627 12.7164 28.8951L12.9037 28.8137C13.1502 28.7077 13.3843 28.5968 13.6037 28.481C13.7737 28.3898 13.9389 28.2962 14.0966 28.2H14.1163C14.1484 28.1803 14.1755 28.1581 14.2075 28.1359C14.3135 28.0669 14.417 27.9979 14.5131 27.924C14.6981 27.7837 14.875 27.6331 15.043 27.473C15.0857 27.4335 15.1252 27.3941 15.1613 27.3547C15.3077 27.2111 15.4444 27.0579 15.5705 26.8962C15.603 26.8551 15.6335 26.8123 15.6616 26.7681C15.7911 26.5909 15.9065 26.4038 16.0067 26.2086V26.2086L16.0363 26.147C16.0856 26.0435 16.1324 25.9424 16.1718 25.8414C16.2088 25.7403 16.2408 25.6442 16.2679 25.5505C16.2679 25.5259 16.2803 25.5012 16.2877 25.4766C16.2877 25.447 16.3 25.4199 16.3074 25.3928C16.3222 25.3262 16.3394 25.2622 16.3517 25.1981C16.3641 25.134 16.3739 25.0428 16.3813 24.9689C16.3813 24.9516 16.3813 24.9319 16.3813 24.9147C16.3873 24.8285 16.3873 24.742 16.3813 24.6559C16.4151 24.6137 16.4433 24.5673 16.4651 24.5178V24.5178ZM9.83769 28.1729L9.43348 28.3233C9.22399 28.3947 9.04161 28.4564 8.89866 28.4982C8.69163 28.5599 8.00645 24.4414 8.33179 24.4612L8.88633 24.4981L9.14512 24.5154C11.2253 24.6608 15.0134 24.9935 14.9642 25.5136C14.9149 26.0336 11.7084 27.4705 9.83769 28.1729Z" fill="#7AC145"/>
<path d="M22.614 25.6016C22.3264 24.4546 21.7562 23.398 20.9552 22.5282C20.7088 22.257 18.1875 19.4843 17.6699 19.2058C17.6633 19.2016 17.6578 19.1957 17.6541 19.1888C17.6503 19.182 17.6483 19.1742 17.6483 19.1664C17.6483 19.1585 17.6503 19.1508 17.6541 19.1439C17.6578 19.137 17.6633 19.1312 17.6699 19.1269C18.323 18.6217 19.4715 17.9883 20.1345 17.4806C21.6651 16.2926 22.3207 14.9099 22.3527 12.9382C22.3698 12.0462 22.1657 11.1639 21.7587 10.3701C21.6749 10.2057 21.5837 10.0505 21.4851 9.90424C21.3915 9.76622 21.2929 9.63559 21.1894 9.50743C20.0778 8.13216 18.3329 7.31636 16.5435 6.81111C16.3316 6.74949 16.1221 6.7002 15.9126 6.64844C17.0118 7.08513 17.9886 7.78202 18.7592 8.67931C18.8578 8.80254 18.954 8.92577 19.0427 9.06133C19.1314 9.19688 19.2275 9.35708 19.3089 9.50989C19.7011 10.2766 19.8975 11.1283 19.8807 11.9893C19.8486 13.8945 19.2152 15.2279 17.7389 16.3739C17.1079 16.8669 15.9988 17.4756 15.3679 17.9636C15.3618 17.9677 15.3568 17.9732 15.3533 17.9796C15.3499 17.9861 15.3481 17.9933 15.3481 18.0006C15.3481 18.0079 15.3499 18.0151 15.3533 18.0216C15.3568 18.028 15.3618 18.0335 15.3679 18.0376C15.8608 18.3087 18.2984 20.9828 18.5399 21.2416C19.3114 22.079 19.862 23.0955 20.1419 24.1992C20.4599 25.5252 20.307 26.9103 19.4222 28.0835C18.323 29.5302 16.4302 30.5111 14.6852 31.2259C12.2205 32.2315 9.64745 32.8452 7.1138 33.6092C6.68988 33.7374 5.51917 34.1884 4.40269 34.4472L4.102 34.5137H4.06503C3.91961 34.5433 3.77913 34.5655 3.64111 34.5827C3.75695 35.3788 3.86046 35.9112 3.9418 36.0369C4.22523 36.4707 5.03857 36.4559 5.95049 36.2833H5.98745C6.09097 36.2636 6.19695 36.239 6.30046 36.2143C7.45392 35.9457 8.66406 35.4749 9.10277 35.3468C11.7301 34.5532 14.4042 33.9197 16.9477 32.8821C18.7568 32.1427 20.7186 31.1248 21.8573 29.6263C22.7865 28.4211 22.9442 26.9744 22.614 25.6016Z" fill="#DA291C"/>
<path d="M13.6948 10.186C13.6948 9.84092 8.62008 9.22229 7.52085 9.09413L7.31135 9.06702C7.31135 9.06702 7.36557 9.42686 7.44691 9.9469C7.45923 10.0307 7.47402 10.1219 7.48881 10.2131C7.61697 11.0264 7.79442 12.1084 7.94723 12.902C7.98957 13.2618 8.07225 13.6156 8.19369 13.9569C8.35636 14.1294 12.322 11.4774 13.4089 10.5064L13.5444 10.3782C13.6057 10.3275 13.6531 10.2623 13.6825 10.1884L13.6948 10.186ZM16.0116 11.056C16.0222 11.1129 16.0279 11.1706 16.0288 11.2285V11.2285C16.0234 11.3274 16.0051 11.4251 15.9746 11.5193C15.9396 11.6337 15.8899 11.7431 15.8267 11.8447V11.8595C15.8196 11.8717 15.8113 11.8832 15.8021 11.894L15.7676 11.9408L15.7207 11.995C15.669 12.0517 15.6098 12.1158 15.5359 12.1873C15.4693 12.2538 15.3905 12.3253 15.3091 12.4017L15.2869 12.4214L15.2401 12.4633L15.0232 12.658L14.9863 12.6876L14.9394 12.727C14.8392 12.8157 14.7308 12.9069 14.6141 13.0006C14.6087 13.0076 14.602 13.0135 14.5944 13.0178C14.4588 13.1312 14.3109 13.2495 14.1557 13.3728L14.0472 13.4566L13.9782 13.5108L13.6627 13.7572L13.4311 13.9322L13.1476 14.1417L12.879 14.3389C12.6892 14.472 12.5019 14.6075 12.3097 14.7382C11.972 14.9723 11.6319 15.1966 11.2967 15.4036C11.1069 15.5219 10.9221 15.6328 10.7372 15.7388L10.5573 15.8399C10.4341 15.9089 10.3108 15.9754 10.1925 16.0346C10.1601 16.0543 10.1264 16.0715 10.0915 16.0863L10.0101 16.1307L9.66509 16.2909L9.55172 16.3402L9.51228 16.355C9.35701 16.4191 9.20666 16.4733 9.07111 16.5152L9.01442 16.5324H8.99717H8.97499C8.91091 16.5472 8.85915 16.5522 8.8 16.562C8.74549 16.5741 8.69036 16.5831 8.63487 16.5891C8.53628 16.5891 8.43769 16.6088 8.34157 16.6236H8.29228L8.1025 16.6581H8.06307L7.98174 16.6778C7.94477 16.6778 7.9078 16.6902 7.87329 16.7H7.85604C7.7821 16.7197 7.71063 16.7419 7.63669 16.7666H7.62189L7.52824 16.7961C7.32121 16.8627 7.1265 16.9366 6.95151 17.0032L6.64097 17.1141L6.55224 17.1387C6.46246 17.1682 6.37 17.1889 6.2762 17.2004C6.22628 17.2066 6.17578 17.2066 6.12586 17.2004H6.08889C6.05777 17.1921 6.02792 17.1797 6.00016 17.1634V17.1634L5.98044 17.1511C5.94249 17.1213 5.91069 17.0845 5.88679 17.0426C5.8755 17.018 5.86643 16.9924 5.85968 16.9662C5.85968 16.944 5.83996 16.9243 5.83257 16.8997C5.83372 16.8948 5.83372 16.8897 5.83257 16.8849C5.83257 16.8849 5.83257 16.8849 5.83257 16.8725C5.8193 16.8148 5.80942 16.7564 5.80299 16.6976C5.80419 16.691 5.80419 16.6844 5.80299 16.6778C5.80299 16.5965 5.80299 16.5078 5.80299 16.4067V16.3673C5.80299 16.286 5.80299 16.1923 5.80299 16.0937C5.80299 16.0641 5.80299 16.0346 5.80299 16.005V15.8842C5.80299 15.8349 5.80299 15.7807 5.80299 15.729C5.80299 15.6772 5.80299 15.6698 5.80299 15.6402V15.5564V15.4085V15.2952C5.80179 15.2878 5.80179 15.2803 5.80299 15.273V15.1621C5.80164 15.1482 5.80164 15.1341 5.80299 15.1202C5.80299 15.0536 5.80299 14.9797 5.78574 14.9082C5.76848 14.8368 5.78574 14.7998 5.77341 14.7382L5.75863 14.5878C5.75863 14.573 5.75863 14.5558 5.75863 14.541C5.75863 14.5262 5.75863 14.5114 5.75863 14.4991C5.75863 14.4868 5.75863 14.4301 5.75863 14.3931C5.75863 14.3561 5.75862 14.2748 5.74137 14.2157C5.72412 14.1565 5.72905 14.1121 5.72658 14.0604C5.72658 14.0604 5.72658 14.0456 5.72658 14.0357C5.60828 12.8576 5.43822 11.5218 5.29773 10.4793C5.15725 9.43672 5.05127 8.68746 5.05127 8.68746C5.0893 8.53538 5.16432 8.39505 5.26967 8.27895C5.37502 8.16285 5.50742 8.07459 5.65511 8.02201H5.68469C5.71852 8.01176 5.75314 8.00434 5.7882 7.99983C5.83654 7.99485 5.88527 7.99485 5.93361 7.99983H6.12339H6.14311H6.32549H6.46598H6.52266L6.74695 8.01215H6.78885L7.03531 8.02694L7.42965 8.05405C7.65393 8.06884 7.89301 8.08609 8.14686 8.10827L8.4229 8.13292C8.57078 8.14524 8.72359 8.15756 8.87886 8.17482L9.45313 8.23397L9.6158 8.24876L9.71931 8.26108L10.3749 8.33995H10.4168H10.4661L10.8925 8.3991L11.0552 8.42128H11.1094C11.3238 8.45332 11.5358 8.48782 11.7428 8.52479H11.7995L12.2185 8.60366L12.354 8.63078L12.4156 8.64556L12.5709 8.68007L12.9283 8.75894C13.1526 8.81563 13.3621 8.87477 13.5592 8.93393H13.5888H13.6085C13.8008 8.99554 13.9807 9.05962 14.1409 9.12617C14.2395 9.17053 14.3307 9.20997 14.4219 9.25433C14.5131 9.29869 14.5697 9.32827 14.6387 9.36524C14.6526 9.37032 14.6658 9.37693 14.6782 9.38496L14.9246 9.51312L15.0503 9.58952L15.1317 9.63635C15.1736 9.66346 15.2056 9.69057 15.245 9.71769H15.2623C15.4001 9.81244 15.5296 9.91881 15.6492 10.0356L15.6838 10.0677C15.7751 10.1617 15.8576 10.2641 15.9302 10.3733L15.9425 10.3881L15.977 10.4497C16.0091 10.5064 16.0387 10.5606 16.0633 10.6148C16.0922 10.6826 16.1153 10.7527 16.1323 10.8243C16.1323 10.8637 16.1323 10.9032 16.1323 10.9451" fill="#7AC145"/>
<path d="M20.9581 24.2061C20.6788 23.1022 20.1281 22.0856 19.3561 21.2485C19.1096 20.9848 16.6844 18.3107 16.1841 18.0445C16.178 18.0405 16.173 18.035 16.1695 18.0285C16.166 18.0221 16.1642 18.0149 16.1642 18.0075C16.1642 18.0002 16.166 17.993 16.1695 17.9866C16.173 17.9801 16.178 17.9746 16.1841 17.9706C16.815 17.4776 17.9241 16.8713 18.5551 16.3809C20.0338 15.2323 20.6648 13.899 20.6968 11.9963C20.7155 11.1351 20.519 10.2829 20.125 9.51683C20.0437 9.36402 19.955 9.21368 19.8589 9.06827C19.7627 8.92285 19.6765 8.80948 19.5754 8.68625C18.5033 7.3578 16.8175 6.57158 15.0898 6.08112C14.5426 5.92584 13.9905 5.80261 13.4532 5.6991C13.0687 5.62762 12.6892 5.56354 12.3269 5.51178C9.05877 5.04103 1.32225 6.23639 0.80467 6.31772C0.796362 6.3183 0.788544 6.32186 0.782655 6.32775C0.776766 6.33364 0.773207 6.34145 0.772632 6.34976C0.33639 8.14649 0.972266 15.2964 1.28528 19.2177C1.59829 23.1389 2.5595 33.6925 2.95631 34.3062C3.22742 34.7277 4.0161 34.7129 4.89352 34.5404H4.93049L5.23118 34.4714C6.34273 34.2126 7.51344 33.764 7.94229 33.6359C10.4759 32.8694 13.0564 32.2581 15.5137 31.2525C17.2586 30.5378 19.1515 29.5544 20.2507 28.1077C21.1232 26.9172 21.276 25.5296 20.9581 24.2061ZM6.05437 17.2336C6.02325 17.2254 5.9934 17.213 5.96564 17.1967V17.1967L5.94592 17.1843C5.90797 17.1546 5.87616 17.1178 5.85226 17.0759C5.84098 17.0513 5.83191 17.0257 5.82516 16.9995C5.82516 16.9773 5.80544 16.9576 5.79805 16.9329C5.7992 16.9281 5.7992 16.923 5.79805 16.9182C5.79805 16.9182 5.79805 16.9182 5.79805 16.9058C5.78478 16.8481 5.7749 16.7897 5.76847 16.7309C5.76967 16.7243 5.76967 16.7177 5.76847 16.7111C5.76847 16.6298 5.76847 16.5411 5.76847 16.44V16.4006C5.76847 16.3193 5.76847 16.2256 5.76847 16.127C5.76847 16.0974 5.76847 16.0679 5.76847 16.0383V15.9175C5.76847 15.8682 5.76847 15.814 5.76847 15.7622C5.76847 15.7105 5.76847 15.7031 5.76847 15.6735V15.5897V15.4418V15.3285C5.76727 15.3211 5.76727 15.3136 5.76847 15.3063V15.1954C5.76712 15.1814 5.76712 15.1674 5.76847 15.1535C5.76847 15.0869 5.76847 15.013 5.75122 14.9415C5.73396 14.87 5.75122 14.8331 5.73889 14.7715L5.72411 14.6211C5.72411 14.6063 5.72411 14.5891 5.72411 14.5743C5.72411 14.5595 5.72411 14.5447 5.72411 14.5324C5.72411 14.5201 5.72411 14.4634 5.72411 14.4264C5.72411 14.3894 5.7241 14.3081 5.70685 14.249C5.6896 14.1898 5.69453 14.1454 5.69206 14.0937C5.69206 14.0937 5.69206 14.0789 5.69206 14.069C5.57376 12.8909 5.4037 11.5551 5.26321 10.5125C5.12273 9.47 5.01675 8.72075 5.01675 8.72075C5.05478 8.56867 5.1298 8.42834 5.23515 8.31224C5.3405 8.19614 5.4729 8.10788 5.62059 8.0553H5.65017C5.684 8.04505 5.71862 8.03763 5.75368 8.03312C5.80202 8.02814 5.85075 8.02814 5.89909 8.03312H6.08887H6.10859H6.29097H6.43146H6.48814L6.71243 8.04544H6.75433L7.00079 8.06023L7.39514 8.08734C7.61942 8.10213 7.85849 8.11938 8.11235 8.14156L8.38839 8.16621C8.53627 8.17853 8.68908 8.19085 8.84435 8.2081L9.41861 8.26726L9.58127 8.28204L9.68479 8.29437L10.3404 8.37323H10.3823H10.4316L10.858 8.43239L11.0206 8.45457H11.0748C11.2893 8.48661 11.5012 8.52111 11.7083 8.55808H11.765L12.1839 8.63695L12.3195 8.66407L12.3811 8.67885L12.5364 8.71336L12.8938 8.79223C13.118 8.84891 13.3275 8.90806 13.5247 8.96722H13.5543H13.574C13.7662 9.02883 13.9462 9.09291 14.1064 9.15946C14.205 9.20382 14.2961 9.24326 14.3873 9.28762C14.4785 9.33198 14.5352 9.36156 14.6042 9.39853C14.6181 9.40361 14.6313 9.41022 14.6437 9.41825L14.8901 9.54641L15.0183 9.62281L15.0972 9.66964C15.1391 9.69675 15.1711 9.72386 15.2105 9.75097H15.2278C15.3649 9.84568 15.4943 9.95117 15.6147 10.0664L15.6492 10.101C15.7406 10.195 15.8231 10.2973 15.8957 10.4066L15.908 10.4214L15.9425 10.483C15.9746 10.5397 16.0041 10.5939 16.0288 10.6481C16.0577 10.7159 16.0808 10.7859 16.0978 10.8576C16.0978 10.897 16.0978 10.9365 16.0978 10.9784C16.1084 11.0353 16.1142 11.093 16.1151 11.1509V11.1509C16.1096 11.2498 16.0914 11.3475 16.0608 11.4417C16.0259 11.5561 15.9762 11.6655 15.913 11.7671V11.7818C15.9058 11.7941 15.8976 11.8056 15.8883 11.8163L15.8538 11.8632L15.807 11.9174C15.7552 11.9741 15.6961 12.0382 15.6221 12.1096C15.5556 12.1762 15.4767 12.2477 15.3954 12.3241L15.3732 12.3438L15.3264 12.3857L15.1095 12.5804L15.0725 12.61L15.0257 12.6494C14.9254 12.7381 14.817 12.8293 14.7003 12.923C14.695 12.93 14.6883 12.9358 14.6806 12.9402C14.5451 13.0536 14.3972 13.1719 14.2419 13.2951L14.1335 13.3789L14.0645 13.4332L13.749 13.6796L13.5173 13.8546L13.2339 14.0641L12.9652 14.2613C12.7755 14.3944 12.5881 14.5299 12.3959 14.6605C12.0582 14.8947 11.7181 15.119 11.3829 15.326C11.1932 15.4443 11.0083 15.5552 10.8235 15.6612L10.6435 15.7622C10.5203 15.8313 10.3971 15.8978 10.2788 15.957C10.2464 15.9766 10.2126 15.9939 10.1777 16.0087L10.0964 16.0531L9.75134 16.2133L9.63796 16.2626L9.59853 16.2774C9.44326 16.3414 9.29291 16.3957 9.15736 16.4376L9.10067 16.4548H9.08342H9.06124C8.99716 16.4696 8.94539 16.4745 8.88624 16.4844C8.83173 16.4964 8.77661 16.5055 8.72112 16.5115C8.62253 16.5115 8.52394 16.5312 8.42782 16.546H8.37853L8.18875 16.5805H8.14932L8.06799 16.6002C8.03102 16.6002 7.99405 16.6126 7.95954 16.6224H7.94229C7.86835 16.6421 7.79687 16.6643 7.72293 16.689H7.70814L7.61448 16.7185C7.40745 16.7851 7.21275 16.859 7.03776 16.9256L6.72721 17.0365L6.63849 17.0611C6.54871 17.0906 6.45625 17.1113 6.36245 17.1227C6.31253 17.129 6.26202 17.129 6.2121 17.1227H6.17514L6.05437 17.2336ZM16.4724 24.911C16.4724 24.9283 16.4724 24.948 16.4724 24.9652C16.4724 25.0392 16.4626 25.1156 16.4428 25.1944C16.4428 25.2585 16.4133 25.3226 16.3985 25.3891C16.3985 25.4163 16.3862 25.4434 16.3788 25.473C16.3788 25.4976 16.3664 25.5222 16.3591 25.5469C16.3319 25.6405 16.2999 25.7367 16.2629 25.8377C16.2235 25.9388 16.1767 26.0398 16.1274 26.1433L16.0978 26.2049C15.9976 26.4002 15.8822 26.5873 15.7528 26.7644C15.7246 26.8087 15.6942 26.8515 15.6616 26.8926C15.5355 27.0543 15.3988 27.2074 15.2524 27.351C15.2146 27.3904 15.1752 27.4299 15.1341 27.4693C14.9661 27.6295 14.7892 27.7801 14.6042 27.9203V27.9203C14.5081 27.9943 14.4046 28.0633 14.2986 28.1323C14.2666 28.1545 14.2395 28.1767 14.2074 28.1964H14.1877C14.0349 28.2925 13.8698 28.3862 13.6948 28.4774C13.4754 28.5932 13.2462 28.7041 12.9948 28.8101L12.8075 28.8914C12.4205 29.0565 12.0459 29.2217 11.691 29.3843C11.4791 29.478 11.2745 29.5717 11.0773 29.6629H11.0527L10.8062 29.7713H10.784L10.4636 29.9142L10.37 29.9561L10.2443 30.0104L10.1038 30.072C10.057 30.0892 10.0175 30.104 9.97562 30.1237L9.69219 30.2396C9.6355 30.2642 9.57635 30.2889 9.51966 30.3086C9.33235 30.3801 9.1549 30.4392 8.99223 30.486L8.88871 30.5107H8.84188L8.70386 30.5427H8.66689C8.59115 30.5559 8.51454 30.5633 8.43768 30.5649H8.37113C8.28388 30.5649 8.19697 30.5541 8.11235 30.5329C8.09466 30.5265 8.07738 30.5191 8.06059 30.5107C8.01123 30.4976 7.96394 30.4777 7.92011 30.4515V30.4515C7.85966 30.4113 7.80704 30.3603 7.76483 30.3012L7.73526 30.2519L7.72293 30.2322C7.70814 30.2026 7.69089 30.1632 7.67364 30.1213L7.63174 30.0178C7.63174 30.003 7.63174 29.9857 7.61448 29.9685C7.59723 29.9512 7.58491 29.8921 7.57012 29.8452C7.57012 29.8452 7.54794 29.7836 7.53562 29.7466L7.46414 29.5174L7.42964 29.409C7.38034 29.2389 7.32859 29.0491 7.27437 28.847C7.27437 28.8224 7.25958 28.7953 7.25465 28.7731C7.21028 28.6031 7.16592 28.4305 7.1191 28.2432C7.1191 28.2284 7.1191 28.2112 7.1191 28.1939C7.1191 28.1767 7.1191 28.1619 7.10677 28.1446C7.09445 28.1274 7.08213 28.0485 7.07227 27.9992V27.9672C7.07227 27.9672 7.07227 27.9672 7.07227 27.9548C7.05255 27.8735 7.03529 27.7848 7.01558 27.7084C6.99586 27.632 6.96382 27.494 6.93917 27.3806L6.90221 27.213C6.90102 27.1933 6.90102 27.1735 6.90221 27.1538C6.80608 26.7201 6.71243 26.2764 6.62863 25.8352L6.59906 25.6824C6.59906 25.6233 6.57687 25.5641 6.56701 25.505C6.55716 25.4458 6.5399 25.3694 6.52758 25.3029C6.49307 25.1033 6.46103 24.911 6.42899 24.7188C6.42899 24.6448 6.40681 24.5734 6.39449 24.4994C6.37724 24.3786 6.35998 24.253 6.34273 24.147L6.31316 23.9375C6.29837 23.8192 6.28604 23.7083 6.27372 23.5998C6.27372 23.5431 6.27372 23.4864 6.25647 23.4347C6.23922 23.2794 6.22689 23.1315 6.22196 22.9984V22.9122C6.22196 22.8259 6.22196 22.7397 6.22196 22.6657C6.22252 22.5626 6.23076 22.4596 6.24661 22.3576C6.25464 22.3034 6.26955 22.2504 6.29097 22.1999C6.30336 22.1695 6.32381 22.1431 6.35012 22.1235V22.1235C6.39688 22.1011 6.44554 22.083 6.49554 22.0693L6.56455 22.0545C6.60891 22.0545 6.6582 22.0348 6.71489 22.0274L6.80855 22.015H6.90467H7.00079H7.10184C7.19796 22.015 7.30148 22.0151 7.40992 22.0027C7.51837 21.9904 7.67364 22.0027 7.81413 22.0027H8.02855H8.1641H8.26023C8.4919 22.0027 8.7359 22.0274 8.98237 22.0496H9.05877H9.11053C9.35699 22.0717 9.60346 22.0988 9.86471 22.1309L10.0052 22.1481C10.2517 22.1826 10.5154 22.2221 10.7594 22.2664L10.8629 22.2862C11.1094 22.3355 11.3558 22.3872 11.6023 22.4464L11.6466 22.4587L12.1396 22.5844H12.1593L12.5216 22.6756L12.5709 22.6879C12.8913 22.7692 13.224 22.8555 13.5568 22.9344L14.0497 23.0773L14.1631 23.1118C14.3208 23.1586 14.4761 23.2104 14.6264 23.2622L14.7225 23.2942L15.1169 23.4421L15.1883 23.4692C15.3239 23.5259 15.4521 23.585 15.5753 23.6442L15.664 23.6885C15.7823 23.7502 15.8957 23.8142 15.9943 23.8783L16.0337 23.9079C16.1203 23.9643 16.2027 24.0269 16.2802 24.0952L16.3246 24.1396C16.3899 24.2034 16.4455 24.2765 16.4897 24.3565L16.5143 24.4058C16.5304 24.4419 16.5444 24.4789 16.5562 24.5167C16.5686 24.5609 16.576 24.6064 16.5784 24.6522C16.5512 24.7409 16.5175 24.8274 16.4774 24.911H16.4724Z" fill="#F58434"/>
</svg>
